<?xml version="1.0" encoding="UTF-8" standalone="no"?>
<!-- Created with Inkscape (http://www.inkscape.org/) -->

<svg
   width="101.05958mm"
   height="43.598476mm"
   viewBox="0 0 101.05958 43.598476"
   version="1.1"
   id="svg737"
   xmlns="http://www.w3.org/2000/svg"
   xmlns:svg="http://www.w3.org/2000/svg">
  <defs
     id="defs734" />
  <g
     id="layer1"
     transform="translate(191.36621,29.607417)">
    <g
       id="g8713"
       transform="matrix(0.06523973,0,0,0.06523973,-49.66832,39.687392)">
      <g
         id="g8689">
        <path
           id="path8645"
           style="font-style:normal;font-variant:normal;font-weight:bold;font-stretch:normal;font-size:123.25px;line-height:1.25;font-family:Calibri;-inkscape-font-specification:'Calibri Bold';letter-spacing:19.9327px;word-spacing:0.0382702px;fill:#595959;fill-opacity:1;stroke:none;stroke-width:5.77735"
           d="m -2030.8699,-401.19457 q 0.7185,2.17756 0.8981,3.4478 0.1797,1.27024 -0.479,1.9356 -0.6586,0.60488 -2.335,0.72585 -1.6766,0.18146 -4.6105,0.18146 -3.0537,0 -4.79,-0.12097 -1.6766,-0.0605 -2.5747,-0.30243 -0.8981,-0.30244 -1.2574,-0.78634 -0.3593,-0.48391 -0.5987,-1.27025 l -5.2092,-15.72677 h -29.0995 l -4.9098,15.30337 q -0.2395,0.84682 -0.6586,1.4517 -0.3593,0.54438 -1.2574,0.90731 -0.8382,0.30244 -2.4549,0.42341 -1.5568,0.12097 -4.1314,0.12097 -2.7543,0 -4.3111,-0.18146 -1.5567,-0.18146 -2.1555,-0.84682 -0.5987,-0.72585 -0.4191,-1.99609 0.1797,-1.27024 0.8981,-3.38731 l 23.8904,-69.43976 q 0.3592,-1.02828 0.8382,-1.63316 0.479,-0.66537 1.4969,-0.9678 1.0778,-0.36293 2.9339,-0.42342 1.8562,-0.12097 4.9098,-0.12097 3.5327,0 5.6283,0.12097 2.0956,0.0605 3.2333,0.42342 1.1975,0.30243 1.6765,0.9678 0.5388,0.66536 0.8981,1.81462 z m -35.566,-57.40272 h -0.06 l -10.9572,33.26817 h 21.9742 z" />
        <path
           id="path8647"
           style="font-style:normal;font-variant:normal;font-weight:bold;font-stretch:normal;font-size:123.25px;line-height:1.25;font-family:Calibri;-inkscape-font-specification:'Calibri Bold';letter-spacing:19.9327px;word-spacing:0.0382702px;fill:#595959;fill-opacity:1;stroke:none;stroke-width:5.77735"
           d="m -1841.0698,-400.83163 q 0,1.39121 -0.479,2.47999 -0.479,1.08877 -1.3173,1.81462 -0.7783,0.72585 -1.9159,1.08878 -1.0779,0.30244 -2.2155,0.30244 h -6.7061 q -2.0956,0 -3.6523,-0.42341 -1.4969,-0.42342 -2.8142,-1.51219 -1.2574,-1.14927 -2.4549,-3.02438 -1.1975,-1.93561 -2.6943,-4.95999 l -19.28,-36.595 q -1.6765,-3.26633 -3.4129,-7.01656 -1.7364,-3.81071 -3.1136,-7.37948 h -0.1197 q 0.2395,4.35511 0.3593,8.71021 0.1197,4.29463 0.1197,8.89168 v 40.9501 q 0,0.60488 -0.3593,1.08877 -0.2993,0.48391 -1.1376,0.84684 -0.7783,0.30243 -2.1555,0.48389 -1.3772,0.18146 -3.5327,0.18146 -2.0956,0 -3.4728,-0.18146 -1.377,-0.18146 -2.1555,-0.48389 -0.7783,-0.36293 -1.0777,-0.84684 -0.2994,-0.48389 -0.2994,-1.08877 v -70.34707 q 0,-2.84292 1.6167,-4.23414 1.6765,-1.45169 4.0715,-1.45169 h 8.4424 q 2.2753,0 3.8321,0.42341 1.5567,0.36293 2.7542,1.27024 1.2574,0.90731 2.3352,2.54048 1.0777,1.57267 2.2154,3.93169 l 15.0886,28.61064 q 1.3173,2.60096 2.5747,5.14143 1.3173,2.48 2.5147,5.02048 1.1975,2.47999 2.3351,4.89949 1.1377,2.41951 2.2154,4.83901 h 0.06 q -0.1795,-4.23413 -0.2993,-8.83119 -0.06,-4.59706 -0.06,-8.7707 v -36.71597 q 0,-0.60487 0.3592,-1.08878 0.3593,-0.48389 1.1975,-0.84682 0.8384,-0.36292 2.2154,-0.4839 1.3772,-0.18147 3.5327,-0.18147 2.0358,0 3.4129,0.18147 1.3771,0.12098 2.0956,0.4839 0.7785,0.36293 1.0779,0.84682 0.2993,0.48391 0.2993,1.08878 z" />
        <path
           id="path8649"
           style="font-style:normal;font-variant:normal;font-weight:bold;font-stretch:normal;font-size:123.25px;line-height:1.25;font-family:Calibri;-inkscape-font-specification:'Calibri Bold';letter-spacing:19.9327px;word-spacing:0.0382702px;fill:#595959;fill-opacity:1;stroke:none;stroke-width:5.77735"
           d="m -1645.6414,-401.19457 q 0.7185,2.17756 0.8981,3.4478 0.1797,1.27024 -0.479,1.9356 -0.6586,0.60488 -2.3352,0.72585 -1.6764,0.18146 -4.6104,0.18146 -3.0536,0 -4.79,-0.12097 -1.6765,-0.0605 -2.5746,-0.30243 -0.8981,-0.30244 -1.2574,-0.78634 -0.3593,-0.48391 -0.5987,-1.27025 l -5.2093,-15.72677 h -29.0994 l -4.9098,15.30337 q -0.2396,0.84682 -0.6586,1.4517 -0.3593,0.54438 -1.2574,0.90731 -0.8384,0.30244 -2.4549,0.42341 -1.5568,0.12097 -4.1314,0.12097 -2.7543,0 -4.3111,-0.18146 -1.5567,-0.18146 -2.1555,-0.84682 -0.5987,-0.72585 -0.4191,-1.99609 0.1795,-1.27024 0.8981,-3.38731 l 23.8903,-69.43976 q 0.3592,-1.02828 0.8383,-1.63316 0.479,-0.66537 1.4969,-0.9678 1.0777,-0.36293 2.9338,-0.42342 1.8563,-0.12097 4.9099,-0.12097 3.5326,0 5.6283,0.12097 2.0956,0.0605 3.2332,0.42342 1.1975,0.30243 1.6766,0.9678 0.5388,0.66536 0.8981,1.81462 z m -35.5661,-57.40272 h -0.06 l -10.9571,33.26817 h 21.9742 z" />
        <path
           id="path8651"
           style="font-style:normal;font-variant:normal;font-weight:bold;font-stretch:normal;font-size:123.25px;line-height:1.25;font-family:Calibri;-inkscape-font-specification:'Calibri Bold';letter-spacing:19.9327px;word-spacing:0.0382702px;fill:#595959;fill-opacity:1;stroke:none;stroke-width:5.77735"
           d="m -1477.157,-401.92042 q 0,1.81464 -0.1797,3.08487 -0.1197,1.20976 -0.4191,2.05658 -0.2993,0.78634 -0.7784,1.14927 -0.4191,0.36292 -1.0178,0.36292 h -35.5062 q -1.9759,0 -3.3531,-1.14927 -1.3172,-1.20974 -1.3172,-3.87119 v -71.07294 q 0,-0.60486 0.3592,-1.08877 0.4192,-0.4839 1.3173,-0.78634 0.8981,-0.30243 2.395,-0.4839 1.5567,-0.18146 3.832,-0.18146 2.3352,0 3.8321,0.18146 1.4969,0.18147 2.395,0.4839 0.8981,0.30244 1.2574,0.78634 0.4191,0.48391 0.4191,1.08877 v 62.96759 h 24.3694 q 0.5987,0 1.0178,0.36293 0.4791,0.30244 0.7784,1.08878 0.2994,0.72585 0.4191,1.99609 0.1797,1.20975 0.1797,3.02437 z" />
        <path
           id="path8653"
           style="font-style:normal;font-variant:normal;font-weight:bold;font-stretch:normal;font-size:123.25px;line-height:1.25;font-family:Calibri;-inkscape-font-specification:'Calibri Bold';letter-spacing:19.9327px;word-spacing:0.0382702px;fill:#595959;fill-opacity:1;stroke:none;stroke-width:5.77735"
           d="m -1321.3064,-424.96619 v 27.52186 q 0,0.60488 -0.419,1.08878 -0.3593,0.4839 -1.2574,0.78634 -0.8982,0.30243 -2.4549,0.48389 -1.497,0.18146 -3.7722,0.18146 -2.3352,0 -3.8321,-0.18146 -1.4968,-0.18146 -2.4548,-0.48389 -0.8982,-0.30244 -1.2574,-0.78634 -0.3593,-0.4839 -0.3593,-1.08878 v -27.52186 l -21.1959,-42.64375 q -1.1376,-2.23805 -1.4969,-3.44779 -0.2994,-1.27024 0.3593,-1.87512 0.7184,-0.66536 2.5745,-0.78634 1.8563,-0.18146 5.1494,-0.18146 2.7542,0 4.3709,0.12097 1.6766,0.12098 2.6345,0.48391 0.958,0.30243 1.3772,0.84682 0.4789,0.54439 0.8981,1.39122 l 8.622,19.23505 q 1.2574,2.78243 2.455,5.8673 1.2574,3.08487 2.5147,6.47217 h 0.1198 q 1.1376,-3.26633 2.3352,-6.3512 1.1975,-3.08487 2.3351,-5.86729 l 8.5023,-19.11408 q 0.2994,-0.9678 0.7185,-1.51219 0.479,-0.60488 1.3771,-0.9678 0.8981,-0.36293 2.4549,-0.48391 1.5568,-0.12097 4.1314,-0.12097 3.4129,0 5.2691,0.18146 1.916,0.12098 2.5747,0.78634 0.7184,0.60488 0.3592,1.87512 -0.3592,1.27023 -1.437,3.44779 z" />
        <path
           id="path8655"
           style="font-style:normal;font-variant:normal;font-weight:bold;font-stretch:normal;font-size:123.25px;line-height:1.25;font-family:Calibri;-inkscape-font-specification:'Calibri Bold';letter-spacing:19.9327px;word-spacing:0.0382702px;fill:#595959;fill-opacity:1;stroke:none;stroke-width:5.77735"
           d="m -1122.2256,-467.00506 q 0,1.75413 -0.1796,3.02438 -0.1197,1.20974 -0.4191,1.99608 -0.2994,0.72585 -0.7784,1.08878 -0.4192,0.36292 -0.9581,0.36292 h -19.3996 v 63.08857 q 0,0.60488 -0.4191,1.08878 -0.3593,0.4839 -1.2574,0.78634 -0.8981,0.30243 -2.4549,0.48389 -1.4969,0.18146 -3.7722,0.18146 -2.2753,0 -3.832,-0.18146 -1.4969,-0.18146 -2.395,-0.48389 -0.8981,-0.30244 -1.3173,-0.78634 -0.3593,-0.4839 -0.3593,-1.08878 v -63.08857 h -19.3996 q -0.5988,0 -1.0179,-0.36292 -0.4191,-0.36293 -0.7185,-1.08878 -0.2994,-0.78634 -0.479,-1.99608 -0.1197,-1.27025 -0.1197,-3.02438 0,-1.81463 0.1197,-3.08487 0.1796,-1.27025 0.479,-1.9961 0.2994,-0.78634 0.7185,-1.08877 0.4191,-0.36292 1.0179,-0.36292 h 54.6064 q 0.5389,0 0.9581,0.36292 0.479,0.30243 0.7784,1.08877 0.2994,0.72585 0.4191,1.9961 0.1796,1.27024 0.1796,3.08487 z" />
        <path
           id="path8657"
           style="font-style:normal;font-variant:normal;font-weight:bold;font-stretch:normal;font-size:123.25px;line-height:1.25;font-family:Calibri;-inkscape-font-specification:'Calibri Bold';letter-spacing:19.9327px;word-spacing:0.0382702px;fill:#595959;fill-opacity:1;stroke:none;stroke-width:5.77735"
           d="m -982.00245,-397.44433 q 0,0.60488 -0.41912,1.08878 -0.35926,0.4839 -1.25739,0.78634 -0.89813,0.30243 -2.39502,0.48389 -1.49689,0.18146 -3.83203,0.18146 -2.27527,0 -3.83203,-0.18146 -1.49685,-0.18146 -2.39507,-0.48389 -0.89812,-0.30244 -1.31719,-0.78634 -0.35927,-0.4839 -0.35927,-1.08878 v -73.91585 q 0,-0.60486 0.35927,-1.08877 0.41907,-0.4839 1.31719,-0.78634 0.95801,-0.30243 2.45494,-0.4839 1.49689,-0.18146 3.77216,-0.18146 2.33514,0 3.83203,0.18146 1.49689,0.18147 2.39502,0.4839 0.89813,0.30244 1.25739,0.78634 0.41912,0.48391 0.41912,1.08877 z" />
        <path
           id="path8659"
           style="font-style:normal;font-variant:normal;font-weight:bold;font-stretch:normal;font-size:123.25px;line-height:1.25;font-family:Calibri;-inkscape-font-specification:'Calibri Bold';letter-spacing:19.9327px;word-spacing:0.0382702px;fill:#595959;fill-opacity:1;stroke:none;stroke-width:5.77735"
           d="m -796.27386,-407.12234 q 0,1.51219 -0.11975,2.60096 -0.0599,1.02829 -0.2395,1.81462 -0.17963,0.72586 -0.479,1.27025 -0.29939,0.54439 -0.95802,1.27024 -0.65862,0.66537 -2.57464,1.75414 -1.85614,1.08877 -4.61042,2.11707 -2.69439,0.9678 -6.22705,1.63316 -3.47277,0.66537 -7.54432,0.66537 -7.96344,0 -14.37011,-2.48 -6.40669,-2.47999 -10.89735,-7.37949 -4.49066,-4.95997 -6.88568,-12.33947 -2.39502,-7.37948 -2.39502,-17.17847 0,-9.98046 2.63452,-17.72287 2.63452,-7.74241 7.36468,-13.00483 4.73018,-5.26242 11.31648,-7.98437 6.64618,-2.72193 14.60962,-2.72193 3.23328,0 6.22706,0.54439 2.99377,0.54438 5.50854,1.4517 2.57465,0.84683 4.61042,1.99609 2.03577,1.14927 2.81415,1.99609 0.83825,0.78634 1.13763,1.33072 0.29938,0.54439 0.47901,1.39122 0.17962,0.84682 0.2395,1.99609 0.11974,1.14926 0.11974,2.84291 0,1.81464 -0.11974,3.08487 -0.11975,1.27024 -0.41913,2.05658 -0.29938,0.78634 -0.7185,1.14926 -0.41914,0.36293 -0.95801,0.36293 -0.89814,0 -2.27527,-1.02828 -1.37714,-1.08879 -3.59253,-2.35902 -2.15553,-1.33073 -5.20918,-2.35902 -2.99377,-1.08878 -7.18506,-1.08878 -4.61041,0 -8.26282,1.93561 -3.59252,1.87511 -6.16718,5.44388 -2.51477,3.50828 -3.83203,8.52875 -1.31725,5.02047 -1.31725,11.31118 0,6.89559 1.37712,11.97654 1.43702,5.02048 4.01167,8.28681 2.63452,3.26632 6.28693,4.89949 3.71227,1.57268 8.32269,1.57268 4.19129,0 7.24494,-0.9678 3.05365,-1.02829 5.20917,-2.23805 2.21539,-1.20974 3.59253,-2.17755 1.43701,-0.9678 2.21539,-0.9678 0.59876,0 0.95801,0.24195 0.35926,0.24195 0.59876,0.96781 0.23949,0.72585 0.35925,2.05657 0.11975,1.27024 0.11975,3.4478 z" />
        <path
           id="path8661"
           style="font-style:normal;font-variant:normal;font-weight:bold;font-stretch:normal;font-size:123.25px;line-height:1.25;font-family:Calibri;-inkscape-font-specification:'Calibri Bold';letter-spacing:19.9327px;word-spacing:0.0382702px;fill:#595959;fill-opacity:1;stroke:none;stroke-width:5.77735"
           d="m -623.89757,-418.73596 q 0,6.16973 -2.27527,10.82728 -2.27527,4.65754 -6.16718,7.8029 -3.89191,3.08487 -9.10108,4.65754 -5.20916,1.57268 -11.13684,1.57268 -4.01166,0 -7.48444,-0.66536 -3.4129,-0.66537 -6.04743,-1.57268 -2.63452,-0.9678 -4.43078,-1.9961 -1.7364,-1.02828 -2.51478,-1.81462 -0.77838,-0.78634 -1.13763,-2.23804 -0.29938,-1.51219 -0.29938,-4.29462 0,-1.87512 0.11975,-3.14535 0.11975,-1.27025 0.35925,-2.05658 0.29938,-0.78634 0.71851,-1.08878 0.47901,-0.36293 1.07776,-0.36293 0.83826,0 2.33514,1.02829 1.55676,0.96781 3.95179,2.17755 2.39502,1.20976 5.68817,2.23805 3.35303,0.96779 7.72394,0.96779 2.87403,0 5.1493,-0.66536 2.27527,-0.72584 3.83203,-1.99609 1.61664,-1.27024 2.4549,-3.14535 0.83825,-1.87512 0.83825,-4.17364 0,-2.66146 -1.43701,-4.53657 -1.43701,-1.93561 -3.77216,-3.38731 -2.27527,-1.51219 -5.20917,-2.78243 -2.93389,-1.33073 -6.04742,-2.78243 -3.11353,-1.45171 -6.04743,-3.26633 -2.9339,-1.87511 -5.26904,-4.4156 -2.27527,-2.60096 -3.71229,-6.10924 -1.43701,-3.50828 -1.43701,-8.40777 0,-5.62535 2.03577,-9.85949 2.09565,-4.29461 5.56842,-7.07704 3.53266,-2.84292 8.26282,-4.23413 4.79004,-1.39122 10.11896,-1.39122 2.75427,0 5.50855,0.42341 2.75428,0.42342 5.1493,1.14927 2.39502,0.72585 4.25115,1.63316 1.85615,0.90732 2.4549,1.51219 0.59876,0.60488 0.77838,1.02829 0.23951,0.42342 0.35926,1.14927 0.17962,0.66535 0.2395,1.75414 0.0599,1.02828 0.0599,2.60096 0,1.75414 -0.11975,2.96389 -0.0599,1.20976 -0.29937,1.9961 -0.17964,0.78634 -0.59876,1.14926 -0.35926,0.36293 -1.01788,0.36293 -0.65863,0 -2.09564,-0.84684 -1.43702,-0.84682 -3.53266,-1.81462 -2.09564,-1.02829 -4.84992,-1.81462 -2.75428,-0.84683 -6.04743,-0.84683 -2.57464,0 -4.49066,0.66536 -1.91601,0.60487 -3.23328,1.75414 -1.25738,1.08878 -1.91601,2.66145 -0.59876,1.57268 -0.59876,3.32682 0,2.60097 1.37714,4.53657 1.43702,1.87512 3.77216,3.38731 2.39502,1.4517 5.3888,2.78242 2.99376,1.27025 6.10729,2.72195 3.11353,1.45171 6.1073,3.32682 2.99378,1.81462 5.32893,4.41559 2.33514,2.54048 3.77215,6.04876 1.43702,3.4478 1.43702,8.16583 z" />
      </g>
      <g
         style="opacity:0.8"
         transform="matrix(1.0236523,0.2497448,-0.2497448,1.0236523,-2395.2538,-2225.3132)"
         id="g9611">
        <path
           style="display:inline;fill:#e01384;fill-opacity:1;stroke:#000000;stroke-width:0;stroke-linecap:butt;stroke-linejoin:miter;stroke-miterlimit:4;stroke-dasharray:none;stroke-opacity:1"
           d="m 818.2085,1089.0626 c 62.57817,74.2279 21.54985,144.5678 21.54985,144.5678 l 78.43241,36.1121 c 0,0 66.37139,-125.8651 -40.89141,-239.0855 z"
           id="path9538" />
        <path
           id="path9540"
           d="m 839.75835,1233.6304 c -53.25348,98.9312 -152.16969,66.4988 -152.16969,66.4988 l -21.40396,80.5424 c 0,0 163.48112,49.7303 252.00606,-110.9291 z"
           style="display:inline;fill:#173567;fill-opacity:1;stroke:#a8c1ec;stroke-width:0;stroke-linecap:butt;stroke-linejoin:miter;stroke-miterlimit:4;stroke-dasharray:none;stroke-opacity:1" />
        <path
           id="path9542"
           d="m 687.58866,1300.1292 c -90.71886,-30.4558 -89.53822,-116.4895 -89.53822,-116.4895 l -87.01379,-0.028 c 0,0 -1.35844,143.7019 155.14805,197.0601 z"
           style="display:inline;fill:#47763d;fill-opacity:1;stroke:#000000;stroke-width:0;stroke-linecap:butt;stroke-linejoin:miter;stroke-miterlimit:4;stroke-dasharray:none;stroke-opacity:1" />
        <path
           id="path9544"
           d="m 598.05044,1183.6397 c -2.53548,-107.2031 95.17633,-129.634 95.17633,-129.634 l -17.67346,-82.48958 c 0,0 -161.46175,31.42338 -164.51666,212.09538 z"
           style="display:inline;fill:#02558b;fill-opacity:1;stroke:#02558b;stroke-width:0;stroke-linecap:butt;stroke-linejoin:miter;stroke-miterlimit:4;stroke-dasharray:none;stroke-opacity:1" />
        <path
           id="path9546"
           d="M 818.2085,1089.0626 C 755.40432,1030.456 692.48541,1054.896 692.48541,1054.896 l -16.9321,-83.37988 c 0,0 109.97693,-31.66351 201.74604,59.14088 z"
           style="display:inline;fill:#f26d25;fill-opacity:1;stroke:#000000;stroke-width:0;stroke-linecap:butt;stroke-linejoin:miter;stroke-miterlimit:4;stroke-dasharray:none;stroke-opacity:1" />
      </g>
      <g
         id="g8678">
        <path
           style="display:inline;fill:#000000;stroke-width:1.15327"
           d="m -1404.4921,-512.6139 c -2.2459,-0.2108 -7.8961,-0.6851 -12.5515,-1.0542 l -8.4662,-0.6742 V -707.11 -899.8782 l 18.3912,-1.3226 c 109.2861,-7.8543 157.2989,-1.4539 195.2544,26.027 30.5855,22.1433 45.5895,56.1103 45.5793,103.1837 -0.014,45.1739 -9.8716,71.6277 -36.2526,97.2418 -13.4339,13.0437 -22.8494,19.0559 -40.6048,25.9321 -20.3134,7.8672 -51.7392,12.1647 -83.9893,11.4855 l -18.9773,-0.399 v 61.6213 61.6217 l -14.8876,1.3185 c -13.7392,1.2155 -33.6699,1.4722 -43.4971,0.5565 z m 103.916,-190.5573 c 22.2593,-4.2085 35.7665,-13.7391 44.3177,-31.2712 6.2968,-12.9123 7.668,-19.418 7.5791,-35.9876 -0.1208,-22.8367 -6.0814,-39.2604 -18.8295,-51.8954 -11.9599,-11.856 -30.4099,-17.7787 -55.1467,-17.706 -7.3328,0.021 -15.6087,0.371 -18.3905,0.779 l -5.0602,0.7393 v 68.0228 c 0,37.4136 0.3506,68.3637 0.7791,68.7819 1.8022,1.758 33.1318,0.7353 44.751,-1.4628 z"
           id="path9554" />
        <path
           style="display:inline;fill:#000000;stroke-width:1.16769"
           d="m -1668.3948,-514.9768 c -2.81,-0.8763 -6.6317,-3.0537 -8.4936,-4.8377 -7.1581,-6.8582 -6.8351,2.3241 -6.8351,-194.4145 0,-130.9753 0.356,-180.3414 1.3192,-182.454 3.1995,-7.0211 23.3163,-10.4095 52.0439,-8.761 13.4922,0.772 23.882,4.0125 26.0863,8.132 0.7016,1.3096 1.1213,61.4815 1.1213,160.3943 v 158.299 h 63.5356 63.5358 l 2.9518,3.5076 c 3.8497,4.576 4.8677,11.0879 4.7457,30.3554 -0.1108,17.3478 -1.5504,24.5258 -5.7672,28.7424 l -2.7839,2.7854 -93.1771,-0.077 c -75.2491,-0.068 -94.1598,-0.3835 -98.2827,-1.6696 z"
           id="path9556" />
        <path
           style="display:inline;fill:#000000;stroke-width:1.16769"
           d="m -954.7968,-513.0807 c -8.5291,-1.3471 -15.8756,-5.0669 -16.7019,-8.4608 -0.3491,-1.4375 -0.4893,-84.3632 -0.3107,-184.2802 l 0.3265,-181.6687 3.5412,-5.7288 c 2.712,-4.385 5.1564,-6.555 10.4279,-9.25 l 6.8857,-3.5213 h 35.112 c 37.3542,0 42.7468,0.5984 53.212,5.9034 6.841,3.4658 14.8876,11.9149 21.071,22.1219 4.8772,8.0494 54.882,94.74 87.56,151.8001 9.196,16.0563 25.166,45.8065 35.4899,66.1129 l 18.7725,36.92 -0.3812,-137.1197 c -0.432,-155.786 -1.4342,-141.2897 10.0213,-144.8309 9.9545,-3.0789 49.7638,-3.033 57.7968,0.069 9.9352,3.8327 9.046,-14.5359 9.046,187.1107 0,133.0297 -0.3512,181.0096 -1.347,183.9436 -2.4549,7.2209 -7.1262,12.6068 -13.8324,15.9501 -6.3407,3.1591 -6.7535,3.2035 -32.6191,3.5731 -35.8363,0.5128 -46.9558,-1.7962 -58.3833,-12.1187 -7.8083,-7.0554 -16.3827,-21.1 -76.2378,-124.8757 -60.7198,-105.2727 -70.238,-122.3306 -83.4144,-149.4645 l -8.5054,-17.5157 0.8414,28.0253 c 0.4633,15.4129 0.8419,82.2632 0.8419,148.5568 0,118.9955 -0.021,120.5603 -2.3348,122.8021 -4.3427,4.2222 -13.9987,6.1717 -32.6951,6.5989 -9.6327,0.2204 -20.516,-0.067 -24.183,-0.6524 z"
           id="path9558" />
        <path
           id="path9560"
           d="m -1092.0329,-502.3493 c -9.8735,-0.9872 -18.0017,-3.0483 -21.1293,-5.3591 l -3.2912,-2.4329 V -704.851 c 0,-185.1236 0.1133,-194.8054 2.2871,-196.6544 4.4493,-3.7819 16.6093,-5.6734 36.4791,-5.6734 21.4414,0 30.5141,1.3889 35.5296,5.4413 l 3.4658,2.7998 0.3573,192.3733 c 0.1965,105.806 0.041,193.5884 -0.3409,195.0744 -1.8496,7.1411 -28.1991,11.6542 -53.3575,9.1407 z"
           style="display:inline;fill:#000000;fill-opacity:1;stroke-width:1.24572" />
        <path
           style="fill:#000000;stroke:none;stroke-width:0.888771;stroke-linecap:butt;stroke-linejoin:miter;stroke-miterlimit:4;stroke-dasharray:none;stroke-opacity:1"
           d="m -2099.4648,-518.2865 c -4.8047,-8.0453 22.6866,-194.6872 43.5037,-251.6406 25.1386,-68.3436 68.3446,-144.5438 140.6176,-143.7594 75.8073,-0.7865 109.1944,40.4569 150.0442,147.2945 30.6367,99.3742 52.3109,244.9518 46.2809,247.8671 -9.6128,4.6488 -63.3673,9.129 -77.3118,2.3378 -5.9417,-2.8942 -15.7393,-100.16 -24.3801,-144.1525 -8.6408,-43.9918 -36.2033,-172.4167 -92.3721,-168.096 -56.1683,4.3207 -76.077,110.3562 -83.1475,143.7433 -18.8533,71.8787 -19.6918,157.6233 -27.5221,165.2666 -9.0022,8.788 -71.8699,7.5729 -75.7128,1.1392 z"
           id="path9562" />
      </g>
    </g>
  </g>
</svg>
