<?xml version="1.0" encoding="UTF-8" standalone="no"?>
<!-- Created with Inkscape (http://www.inkscape.org/) -->

<svg
   width="29.323435mm"
   height="34.405918mm"
   viewBox="0 0 29.323435 34.405918"
   version="1.1"
   id="svg1840"
   xmlns:inkscape="http://www.inkscape.org/namespaces/inkscape"
   xmlns:sodipodi="http://sodipodi.sourceforge.net/DTD/sodipodi-0.dtd"
   xmlns="http://www.w3.org/2000/svg"
   xmlns:svg="http://www.w3.org/2000/svg">
  <sodipodi:namedview
     id="namedview1842"
     pagecolor="#ffffff"
     bordercolor="#000000"
     borderopacity="0.25"
     inkscape:showpageshadow="2"
     inkscape:pageopacity="0.0"
     inkscape:pagecheckerboard="0"
     inkscape:deskcolor="#d1d1d1"
     inkscape:document-units="mm"
     showgrid="false" />
  <defs
     id="defs1837" />
  <g
     inkscape:label="Ebene 1"
     inkscape:groupmode="layer"
     id="layer1"
     transform="translate(-3.7302922,-1.9323896)">
    <g
       id="g4820"
       transform="matrix(0.06523973,0,0,0.06523973,-31.233244,-21.521919)">
      <g
         style="opacity:0.8"
         id="g9971"
         transform="matrix(1.0236523,0.2497448,-0.2497448,1.0236523,312.62721,-803.64703)">
        <path
           sodipodi:nodetypes="ccccc"
           inkscape:connector-curvature="0"
           id="path9961"
           d="m 818.2085,1089.0626 c 62.57817,74.2279 21.54985,144.5678 21.54985,144.5678 l 78.43241,36.1121 c 0,0 66.37139,-125.8651 -40.89141,-239.0855 z"
           style="display:inline;fill:#e01384;fill-opacity:1;stroke:#000000;stroke-width:0;stroke-linecap:butt;stroke-linejoin:miter;stroke-miterlimit:4;stroke-dasharray:none;stroke-opacity:1" />
        <path
           style="display:inline;fill:#173567;fill-opacity:1;stroke:#a8c1ec;stroke-width:0;stroke-linecap:butt;stroke-linejoin:miter;stroke-miterlimit:4;stroke-dasharray:none;stroke-opacity:1"
           d="m 839.75835,1233.6304 c -53.25348,98.9312 -152.16969,66.4988 -152.16969,66.4988 l -21.40396,80.5424 c 0,0 163.48112,49.7303 252.00606,-110.9291 z"
           id="path9963"
           inkscape:connector-curvature="0"
           sodipodi:nodetypes="ccccc" />
        <path
           style="display:inline;fill:#47763d;fill-opacity:1;stroke:#000000;stroke-width:0;stroke-linecap:butt;stroke-linejoin:miter;stroke-miterlimit:4;stroke-dasharray:none;stroke-opacity:1"
           d="m 687.58866,1300.1292 c -90.71886,-30.4558 -89.53822,-116.4895 -89.53822,-116.4895 l -87.01379,-0.028 c 0,0 -1.35844,143.7019 155.14805,197.0601 z"
           id="path9965"
           inkscape:connector-curvature="0"
           sodipodi:nodetypes="ccccc" />
        <path
           style="display:inline;fill:#02558b;fill-opacity:1;stroke:#02558b;stroke-width:0;stroke-linecap:butt;stroke-linejoin:miter;stroke-miterlimit:4;stroke-dasharray:none;stroke-opacity:1"
           d="m 598.05044,1183.6397 c -2.53548,-107.2031 95.17633,-129.634 95.17633,-129.634 l -17.67346,-82.48958 c 0,0 -161.46175,31.42338 -164.51666,212.09538 z"
           id="path9967"
           inkscape:connector-curvature="0"
           sodipodi:nodetypes="ccccc" />
        <path
           style="display:inline;fill:#f26d25;fill-opacity:1;stroke:#000000;stroke-width:0;stroke-linecap:butt;stroke-linejoin:miter;stroke-miterlimit:4;stroke-dasharray:none;stroke-opacity:1"
           d="M 818.2085,1089.0626 C 755.40432,1030.456 692.48541,1054.896 692.48541,1054.896 l -16.9321,-83.37988 c 0,0 109.97693,-31.66351 201.74604,59.14088 z"
           id="path9969"
           inkscape:connector-curvature="0"
           sodipodi:nodetypes="ccccc" />
      </g>
      <path
         style="fill:#000000;stroke:none;stroke-width:0.843495;stroke-linecap:butt;stroke-linejoin:miter;stroke-miterlimit:4;stroke-dasharray:none;stroke-opacity:1"
         d="m 604.69497,881.59924 c -4.55993,-7.6354 21.53087,-184.7692 41.28753,-238.8212 23.85794,-64.862 64.86287,-137.1803 133.45411,-136.4359 71.9454,-0.7464 103.63167,38.3959 142.40047,139.7909 29.07599,94.3118 49.64602,232.4732 43.92322,235.24 -9.12314,4.4119 -60.13925,8.6639 -73.37334,2.2187 -5.63906,-2.7468 -14.93754,-95.0576 -23.13815,-136.809 -8.20059,-41.7507 -34.35896,-163.6332 -87.66638,-159.5326 -53.30682,4.1006 -72.20138,104.7343 -78.91166,136.4205 -17.89281,68.217 -18.68864,149.5935 -26.12005,156.8475 -8.54362,8.3403 -68.2086,7.1871 -71.85575,1.0811 z"
         id="path9592"
         inkscape:connector-curvature="0"
         sodipodi:nodetypes="scccsscscss" />
    </g>
  </g>
</svg>
